<svg width="49" height="49" viewBox="0 0 49 49" fill="none" xmlns="http://www.w3.org/2000/svg">
<rect x="0.333496" width="48" height="48" rx="24" fill="#2D52EC"/>
<path d="M19.8854 28.98C20.2121 29.2107 20.6014 29.3333 21.0001 29.332V29.3267C21.3764 29.3273 21.7447 29.2175 22.0592 29.0108C22.3737 28.8041 22.6207 28.5097 22.7694 28.164L23.5868 25.6787C23.7756 25.1157 24.0928 24.6044 24.5133 24.1851C24.9337 23.7658 25.4459 23.45 26.0094 23.2627L28.3801 22.492C28.762 22.3579 29.0918 22.1067 29.3227 21.7742C29.5535 21.4418 29.6737 21.045 29.666 20.6403C29.6583 20.2356 29.5232 19.8437 29.2799 19.5202C29.0366 19.1967 28.6975 18.9583 28.3108 18.8387L25.9708 18.0787C25.4047 17.8904 24.8903 17.5727 24.4686 17.1507C24.0468 16.7288 23.7294 16.2142 23.5414 15.648L22.7708 13.2787C22.6364 12.9013 22.3878 12.5752 22.0595 12.3456C21.7312 12.116 21.3396 11.9944 20.939 11.9976C20.5384 12.0008 20.1488 12.1288 19.8243 12.3636C19.4997 12.5984 19.2564 12.9285 19.1281 13.308L18.3508 15.6973C18.1633 16.247 17.8535 16.747 17.4447 17.1595C17.0359 17.572 16.5387 17.8863 15.9908 18.0787L13.6214 18.84C13.2416 18.9719 12.9126 19.2194 12.6806 19.5477C12.4486 19.876 12.3252 20.2688 12.3277 20.6708C12.3302 21.0728 12.4585 21.464 12.6946 21.7894C12.9306 22.1149 13.2627 22.3582 13.6441 22.4854L15.9828 23.244C16.5487 23.4337 17.0629 23.7524 17.4845 24.1749C17.9061 24.5975 18.2237 25.1123 18.4121 25.6787L19.1828 28.0454C19.3148 28.4227 19.5601 28.7507 19.8854 28.98ZM30.1081 35.7093C29.8541 35.5283 29.663 35.2723 29.5614 34.9773L29.1241 33.6347C29.04 33.379 28.8971 33.1466 28.707 32.9561C28.517 32.7655 28.2849 32.6221 28.0294 32.5374L26.7081 32.1067C26.4056 32.0046 26.1426 31.8106 25.9559 31.5516C25.7692 31.2927 25.6681 30.9819 25.6668 30.6627C25.667 30.3455 25.7661 30.0364 25.9504 29.7782C26.1347 29.5201 26.3949 29.3259 26.6948 29.2227L28.0361 28.788C28.2855 28.6995 28.5112 28.555 28.6961 28.3658C28.881 28.1765 29.0201 27.9474 29.1028 27.696L29.5348 26.3733C29.6364 26.0744 29.8284 25.8143 30.0842 25.6292C30.3401 25.4441 30.6471 25.343 30.9628 25.3399C31.2786 25.3368 31.5875 25.4319 31.8469 25.612C32.1063 25.7922 32.3033 26.0484 32.4108 26.3454L32.8494 27.6974C32.9353 27.9508 33.0787 28.1809 33.2684 28.3697C33.4581 28.5584 33.6889 28.7007 33.9428 28.7854L35.2654 29.216C35.5703 29.3114 35.8375 29.5003 36.029 29.756C36.2205 30.0117 36.3267 30.3212 36.3324 30.6406C36.3382 30.96 36.2432 31.2731 36.0611 31.5356C35.8789 31.798 35.6187 31.9964 35.3174 32.1027L33.9654 32.5414C33.7112 32.6272 33.4804 32.7708 33.2911 32.961C33.1019 33.1512 32.9593 33.3827 32.8748 33.6374L32.4454 34.956C32.3414 35.2627 32.1441 35.5294 31.8788 35.716C31.6199 35.9 31.3099 35.9983 30.9924 35.9971C30.6748 35.9959 30.3656 35.8953 30.1081 35.7093Z" fill="white"/>
</svg>
