<svg width="48" height="48" viewBox="0 0 48 48" fill="none" xmlns="http://www.w3.org/2000/svg">
<rect width="48" height="48" rx="24" fill="#2D52EC"/>
<path d="M33.6667 16.06V15.6667C33.6667 14.6942 33.2804 13.7616 32.5927 13.0739C31.9051 12.3863 30.9725 12 30 12H15C14.5882 12.0001 14.1809 12.0849 13.8033 12.2492C13.4257 12.4136 13.086 12.6539 12.8053 12.9552C12.5247 13.2565 12.309 13.6124 12.1718 14.0006C12.0347 14.3889 11.9789 14.8012 12.008 15.212C12.0029 15.2522 12.0002 15.2928 12 15.3333V31.6667C12 32.8159 12.4565 33.9181 13.2692 34.7308C14.0819 35.5435 15.1841 36 16.3333 36H33C33.9725 36 34.9051 35.6137 35.5927 34.9261C36.2804 34.2384 36.6667 33.3058 36.6667 32.3333V19.6667C36.6669 18.8097 36.367 17.9796 35.8189 17.3208C35.2709 16.6619 34.5094 16.2158 33.6667 16.06ZM15 14H30C30.92 14 31.6667 14.7467 31.6667 15.6667V16H15C14.7348 16 14.4804 15.8946 14.2929 15.7071C14.1054 15.5196 14 15.2652 14 15C14 14.7348 14.1054 14.4804 14.2929 14.2929C14.4804 14.1054 14.7348 14 15 14ZM29.6667 25.3333H32.3333C32.5985 25.3333 32.8529 25.4387 33.0404 25.6262C33.228 25.8138 33.3333 26.0681 33.3333 26.3333C33.3333 26.5986 33.228 26.8529 33.0404 27.0404C32.8529 27.228 32.5985 27.3333 32.3333 27.3333H29.6667C29.4014 27.3333 29.1471 27.228 28.9596 27.0404C28.772 26.8529 28.6667 26.5986 28.6667 26.3333C28.6667 26.0681 28.772 25.8138 28.9596 25.6262C29.1471 25.4387 29.4014 25.3333 29.6667 25.3333Z" fill="white"/>
</svg>
