<svg width="375" height="812" viewBox="0 0 375 812" fill="none" xmlns="http://www.w3.org/2000/svg">
<g clip-path="url(#clip0_18_9627)">
<rect width="375" height="812" fill="#11101C"/>
<rect width="375" height="812" fill="url(#paint0_linear_18_9627)"/>
<path d="M97.6354 426.718C92.9781 426.718 88.7508 425.536 84.9533 423.171C81.2275 420.807 78.254 417.618 76.0329 413.606C73.8833 409.522 72.8086 404.972 72.8086 399.957C72.8086 394.869 73.8833 390.32 76.0329 386.307C78.254 382.223 81.2275 378.999 84.9533 376.634C88.7508 374.198 92.9781 372.98 97.6354 372.98C101.576 372.98 105.051 373.84 108.061 375.56C111.141 377.208 113.578 379.5 115.369 382.438C117.16 385.376 118.056 388.708 118.056 392.433V407.265C118.056 410.991 117.16 414.322 115.369 417.26C113.649 420.198 111.249 422.526 108.168 424.246C105.087 425.894 101.576 426.718 97.6354 426.718ZM99.57 415.541C103.941 415.541 107.452 414.072 110.103 411.134C112.825 408.196 114.187 404.435 114.187 399.849C114.187 396.768 113.578 394.045 112.36 391.681C111.141 389.317 109.422 387.489 107.201 386.2C105.051 384.838 102.508 384.158 99.57 384.158C96.704 384.158 94.1604 384.838 91.9392 386.2C89.7897 387.489 88.0701 389.317 86.7804 391.681C85.5623 394.045 84.9533 396.768 84.9533 399.849C84.9533 402.93 85.5623 405.653 86.7804 408.017C88.0701 410.382 89.7897 412.245 91.9392 413.606C94.1604 414.896 96.704 415.541 99.57 415.541ZM119.345 425.643C116.081 425.643 113.434 422.997 113.434 419.732V411.779L115.476 399.204L113.434 386.737V379.966C113.434 376.702 116.081 374.055 119.345 374.055V374.055C122.61 374.055 125.257 376.702 125.257 379.966V419.732C125.257 422.997 122.61 425.643 119.345 425.643V425.643Z" fill="white"/>
<path d="M160.034 426.585C154.643 426.585 149.855 425.45 145.67 423.18C141.485 420.839 138.151 417.647 135.669 413.604C133.257 409.561 132.051 404.95 132.051 399.772C132.051 394.665 133.222 390.126 135.562 386.153C137.974 382.11 141.237 378.918 145.351 376.577C149.465 374.166 154.04 372.96 159.076 372.96C164.042 372.96 168.404 374.095 172.164 376.365C175.994 378.564 178.973 381.614 181.101 385.515C183.3 389.345 184.399 393.708 184.399 398.602C184.399 399.524 184.328 400.482 184.187 401.475V401.475C184.041 403.368 182.314 404.67 180.415 404.675L140.457 404.773V394.346L177.164 394.24L171.525 398.602C171.383 395.552 170.816 392.998 169.823 390.941C168.901 388.884 167.517 387.324 165.673 386.26C163.9 385.125 161.701 384.557 159.076 384.557C156.31 384.557 153.898 385.196 151.841 386.473C149.784 387.678 148.188 389.416 147.053 391.686C145.989 393.885 145.457 396.509 145.457 399.56C145.457 402.681 146.025 405.411 147.16 407.752C148.366 410.022 150.068 411.795 152.267 413.072C154.466 414.278 157.019 414.881 159.928 414.881C162.552 414.881 164.928 414.455 167.056 413.604C167.392 413.459 167.72 413.303 168.041 413.137C170.84 411.687 174.475 411.447 176.704 413.676V413.676C179.006 415.978 179.196 419.754 176.546 421.646C175.045 422.718 173.406 423.62 171.632 424.35C168.085 425.84 164.219 426.585 160.034 426.585Z" fill="white"/>
<path d="M199.988 425.521C196.139 425.521 193.019 422.401 193.019 418.552V374.13H206.957V418.552C206.957 422.401 203.837 425.521 199.988 425.521V425.521ZM206.957 397.112L201.531 393.495C202.17 387.182 204.014 382.217 207.064 378.599C210.114 374.911 214.512 373.066 220.257 373.066C222.74 373.066 224.974 373.492 226.96 374.343C228.947 375.123 230.755 376.436 232.387 378.28L223.662 388.281C222.882 387.43 221.924 386.792 220.789 386.366C219.725 385.941 218.484 385.728 217.065 385.728C214.086 385.728 211.639 386.685 209.724 388.601C207.88 390.445 206.957 393.282 206.957 397.112Z" fill="white"/>
<path d="M244.305 425.521C240.427 425.521 237.283 422.377 237.283 418.498V381.153C237.283 377.274 240.427 374.13 244.305 374.13V374.13C248.183 374.13 251.327 377.274 251.327 381.153V418.498C251.327 422.377 248.183 425.521 244.305 425.521V425.521ZM244.305 365.831C242.035 365.831 240.155 365.086 238.666 363.597C237.176 362.036 236.432 360.121 236.432 357.851C236.432 355.652 237.176 353.773 238.666 352.212C240.155 350.652 242.035 349.871 244.305 349.871C246.646 349.871 248.525 350.652 249.944 352.212C251.434 353.773 252.179 355.652 252.179 357.851C252.179 360.121 251.434 362.036 249.944 363.597C248.525 365.086 246.646 365.831 244.305 365.831Z" fill="white"/>
<path d="M281.337 426.691C278.428 426.691 275.556 426.301 272.718 425.521C269.952 424.741 267.398 423.677 265.058 422.329C264.34 421.894 263.652 421.432 262.993 420.943C260.509 419.098 260.665 415.528 262.84 413.326V413.326C265.252 410.882 269.203 411.123 272.247 412.711C272.643 412.918 273.049 413.109 273.463 413.285C275.804 414.278 278.393 414.775 281.23 414.775C283.5 414.775 285.203 414.455 286.337 413.817C287.543 413.179 288.146 412.221 288.146 410.944C288.146 409.526 287.508 408.426 286.231 407.646C285.025 406.866 283.429 406.227 281.443 405.731C279.457 405.163 277.364 404.56 275.166 403.922C273.038 403.213 270.981 402.326 268.994 401.262C267.008 400.127 265.377 398.602 264.1 396.687C262.894 394.701 262.291 392.147 262.291 389.026C262.291 385.763 263.072 382.926 264.632 380.514C266.264 378.103 268.569 376.223 271.548 374.875C274.527 373.527 278.038 372.854 282.081 372.854C286.337 372.854 290.168 373.598 293.573 375.088C297.048 376.577 299.921 378.812 302.191 381.791L293.785 390.196C292.225 388.281 290.452 386.898 288.465 386.047C286.55 385.196 284.458 384.77 282.188 384.77C280.131 384.77 278.535 385.089 277.4 385.728C276.336 386.366 275.804 387.253 275.804 388.388C275.804 389.665 276.407 390.658 277.613 391.367C278.89 392.076 280.521 392.715 282.507 393.282C284.493 393.779 286.55 394.382 288.678 395.091C290.877 395.729 292.934 396.651 294.849 397.857C296.835 399.063 298.431 400.659 299.637 402.645C300.914 404.631 301.552 407.185 301.552 410.306C301.552 415.342 299.744 419.35 296.126 422.329C292.509 425.237 287.579 426.691 281.337 426.691Z" fill="white"/>
<path d="M97.7573 458.129V448.413H99.0733V458.129H97.7573ZM98.6533 458.129V456.925H104.225V458.129H98.6533ZM98.6533 453.733V452.585H103.763V453.733H98.6533ZM98.6533 449.617V448.413H104.155V449.617H98.6533ZM106.743 458.129V450.751C106.743 450.237 106.85 449.789 107.065 449.407C107.289 449.015 107.597 448.707 107.989 448.483C108.381 448.249 108.834 448.133 109.347 448.133C109.87 448.133 110.299 448.245 110.635 448.469C110.971 448.693 111.218 449.001 111.377 449.393C111.545 449.775 111.629 450.214 111.629 450.709L110.705 450.695C110.696 450.265 110.579 449.925 110.355 449.673C110.131 449.411 109.795 449.281 109.347 449.281C108.908 449.281 108.572 449.411 108.339 449.673C108.115 449.925 108.003 450.275 108.003 450.723V458.129H106.743ZM105.105 452.627V451.479H114.079V452.627H105.105ZM110.705 458.129V450.485C110.705 449.99 110.812 449.561 111.027 449.197C111.242 448.823 111.536 448.529 111.909 448.315C112.292 448.1 112.735 447.993 113.239 447.993C113.622 447.993 113.953 448.058 114.233 448.189C114.513 448.319 114.77 448.511 115.003 448.763L114.177 449.575C114.056 449.444 113.92 449.346 113.771 449.281C113.622 449.206 113.44 449.169 113.225 449.169C112.824 449.169 112.511 449.285 112.287 449.519C112.072 449.752 111.965 450.074 111.965 450.485V458.129H110.705ZM117.989 458.269C117.336 458.269 116.748 458.115 116.225 457.807C115.703 457.499 115.287 457.083 114.979 456.561C114.671 456.029 114.517 455.436 114.517 454.783C114.517 454.139 114.671 453.56 114.979 453.047C115.287 452.524 115.703 452.109 116.225 451.801C116.748 451.493 117.336 451.339 117.989 451.339C118.633 451.339 119.217 451.493 119.739 451.801C120.271 452.099 120.691 452.51 120.999 453.033C121.307 453.555 121.461 454.139 121.461 454.783C121.461 455.436 121.307 456.029 120.999 456.561C120.691 457.083 120.271 457.499 119.739 457.807C119.217 458.115 118.633 458.269 117.989 458.269ZM117.989 457.051C118.409 457.051 118.783 456.953 119.109 456.757C119.436 456.561 119.693 456.295 119.879 455.959C120.066 455.613 120.159 455.221 120.159 454.783C120.159 454.353 120.061 453.971 119.865 453.635C119.679 453.299 119.422 453.037 119.095 452.851C118.778 452.655 118.409 452.557 117.989 452.557C117.569 452.557 117.196 452.655 116.869 452.851C116.543 453.037 116.286 453.299 116.099 453.635C115.913 453.971 115.819 454.353 115.819 454.783C115.819 455.221 115.913 455.613 116.099 455.959C116.286 456.295 116.543 456.561 116.869 456.757C117.196 456.953 117.569 457.051 117.989 457.051ZM122.881 458.129V451.479H124.141V458.129H122.881ZM124.141 454.335L123.665 454.125C123.665 453.275 123.861 452.599 124.253 452.095C124.645 451.591 125.21 451.339 125.947 451.339C126.283 451.339 126.586 451.399 126.857 451.521C127.128 451.633 127.38 451.824 127.613 452.095L126.787 452.949C126.647 452.799 126.493 452.692 126.325 452.627C126.157 452.561 125.961 452.529 125.737 452.529C125.27 452.529 124.888 452.678 124.589 452.977C124.29 453.275 124.141 453.728 124.141 454.335ZM129.495 458.129V448.693H130.755V458.129H129.495ZM127.857 452.627V451.479H132.393V452.627H127.857ZM133.627 458.129V448.133H134.887V458.129H133.627ZM139.811 458.269C139.148 458.269 138.551 458.119 138.019 457.821C137.487 457.513 137.067 457.097 136.759 456.575C136.451 456.052 136.297 455.459 136.297 454.797C136.297 454.143 136.446 453.555 136.745 453.033C137.053 452.51 137.463 452.099 137.977 451.801C138.499 451.493 139.083 451.339 139.727 451.339C140.343 451.339 140.884 451.479 141.351 451.759C141.827 452.039 142.195 452.426 142.457 452.921C142.727 453.415 142.863 453.975 142.863 454.601C142.863 454.694 142.858 454.797 142.849 454.909C142.839 455.011 142.821 455.133 142.793 455.273H137.179V454.223H142.121L141.659 454.629C141.659 454.181 141.579 453.803 141.421 453.495C141.262 453.177 141.038 452.935 140.749 452.767C140.459 452.589 140.109 452.501 139.699 452.501C139.269 452.501 138.891 452.594 138.565 452.781C138.238 452.967 137.986 453.229 137.809 453.565C137.631 453.901 137.543 454.297 137.543 454.755C137.543 455.221 137.636 455.632 137.823 455.987C138.009 456.332 138.275 456.603 138.621 456.799C138.966 456.985 139.363 457.079 139.811 457.079C140.184 457.079 140.525 457.013 140.833 456.883C141.15 456.752 141.421 456.556 141.645 456.295L142.457 457.121C142.139 457.494 141.747 457.779 141.281 457.975C140.823 458.171 140.333 458.269 139.811 458.269ZM146.35 458.269C145.977 458.269 145.622 458.222 145.286 458.129C144.96 458.026 144.656 457.886 144.376 457.709C144.096 457.522 143.854 457.303 143.648 457.051L144.46 456.239C144.703 456.537 144.983 456.761 145.3 456.911C145.618 457.051 145.972 457.121 146.364 457.121C146.756 457.121 147.06 457.055 147.274 456.925C147.489 456.785 147.596 456.593 147.596 456.351C147.596 456.108 147.508 455.921 147.33 455.791C147.162 455.651 146.943 455.539 146.672 455.455C146.402 455.361 146.112 455.273 145.804 455.189C145.506 455.095 145.221 454.979 144.95 454.839C144.68 454.699 144.456 454.507 144.278 454.265C144.11 454.022 144.026 453.7 144.026 453.299C144.026 452.897 144.124 452.552 144.32 452.263C144.516 451.964 144.787 451.735 145.132 451.577C145.487 451.418 145.912 451.339 146.406 451.339C146.929 451.339 147.391 451.432 147.792 451.619C148.203 451.796 148.539 452.067 148.8 452.431L147.988 453.243C147.802 453 147.568 452.813 147.288 452.683C147.018 452.552 146.71 452.487 146.364 452.487C146 452.487 145.72 452.552 145.524 452.683C145.338 452.804 145.244 452.977 145.244 453.201C145.244 453.425 145.328 453.597 145.496 453.719C145.664 453.84 145.884 453.943 146.154 454.027C146.434 454.111 146.724 454.199 147.022 454.293C147.321 454.377 147.606 454.493 147.876 454.643C148.147 454.792 148.366 454.993 148.534 455.245C148.712 455.497 148.8 455.828 148.8 456.239C148.8 456.864 148.576 457.359 148.128 457.723C147.69 458.087 147.097 458.269 146.35 458.269ZM152.325 458.269C151.952 458.269 151.597 458.222 151.261 458.129C150.934 458.026 150.631 457.886 150.351 457.709C150.071 457.522 149.828 457.303 149.623 457.051L150.435 456.239C150.678 456.537 150.958 456.761 151.275 456.911C151.592 457.051 151.947 457.121 152.339 457.121C152.731 457.121 153.034 457.055 153.249 456.925C153.464 456.785 153.571 456.593 153.571 456.351C153.571 456.108 153.482 455.921 153.305 455.791C153.137 455.651 152.918 455.539 152.647 455.455C152.376 455.361 152.087 455.273 151.779 455.189C151.48 455.095 151.196 454.979 150.925 454.839C150.654 454.699 150.43 454.507 150.253 454.265C150.085 454.022 150.001 453.7 150.001 453.299C150.001 452.897 150.099 452.552 150.295 452.263C150.491 451.964 150.762 451.735 151.107 451.577C151.462 451.418 151.886 451.339 152.381 451.339C152.904 451.339 153.366 451.432 153.767 451.619C154.178 451.796 154.514 452.067 154.775 452.431L153.963 453.243C153.776 453 153.543 452.813 153.263 452.683C152.992 452.552 152.684 452.487 152.339 452.487C151.975 452.487 151.695 452.552 151.499 452.683C151.312 452.804 151.219 452.977 151.219 453.201C151.219 453.425 151.303 453.597 151.471 453.719C151.639 453.84 151.858 453.943 152.129 454.027C152.409 454.111 152.698 454.199 152.997 454.293C153.296 454.377 153.58 454.493 153.851 454.643C154.122 454.792 154.341 454.993 154.509 455.245C154.686 455.497 154.775 455.828 154.775 456.239C154.775 456.864 154.551 457.359 154.103 457.723C153.664 458.087 153.072 458.269 152.325 458.269ZM158.211 458.129L162.187 448.413H163.139L167.101 458.129H165.673L162.411 449.911H162.901L159.611 458.129H158.211ZM160.101 455.931V454.783H165.211V455.931H160.101ZM170.563 458.269C170.19 458.269 169.835 458.222 169.499 458.129C169.173 458.026 168.869 457.886 168.589 457.709C168.309 457.522 168.067 457.303 167.861 457.051L168.673 456.239C168.916 456.537 169.196 456.761 169.513 456.911C169.831 457.051 170.185 457.121 170.577 457.121C170.969 457.121 171.273 457.055 171.487 456.925C171.702 456.785 171.809 456.593 171.809 456.351C171.809 456.108 171.721 455.921 171.543 455.791C171.375 455.651 171.156 455.539 170.885 455.455C170.615 455.361 170.325 455.273 170.017 455.189C169.719 455.095 169.434 454.979 169.163 454.839C168.893 454.699 168.669 454.507 168.491 454.265C168.323 454.022 168.239 453.7 168.239 453.299C168.239 452.897 168.337 452.552 168.533 452.263C168.729 451.964 169 451.735 169.345 451.577C169.7 451.418 170.125 451.339 170.619 451.339C171.142 451.339 171.604 451.432 172.005 451.619C172.416 451.796 172.752 452.067 173.013 452.431L172.201 453.243C172.015 453 171.781 452.813 171.501 452.683C171.231 452.552 170.923 452.487 170.577 452.487C170.213 452.487 169.933 452.552 169.737 452.683C169.551 452.804 169.457 452.977 169.457 453.201C169.457 453.425 169.541 453.597 169.709 453.719C169.877 453.84 170.097 453.943 170.367 454.027C170.647 454.111 170.937 454.199 171.235 454.293C171.534 454.377 171.819 454.493 172.089 454.643C172.36 454.792 172.579 454.993 172.747 455.245C172.925 455.497 173.013 455.828 173.013 456.239C173.013 456.864 172.789 457.359 172.341 457.723C171.903 458.087 171.31 458.269 170.563 458.269ZM176.538 458.269C176.165 458.269 175.81 458.222 175.474 458.129C175.147 458.026 174.844 457.886 174.564 457.709C174.284 457.522 174.041 457.303 173.836 457.051L174.648 456.239C174.891 456.537 175.171 456.761 175.488 456.911C175.805 457.051 176.16 457.121 176.552 457.121C176.944 457.121 177.247 457.055 177.462 456.925C177.677 456.785 177.784 456.593 177.784 456.351C177.784 456.108 177.695 455.921 177.518 455.791C177.35 455.651 177.131 455.539 176.86 455.455C176.589 455.361 176.3 455.273 175.992 455.189C175.693 455.095 175.409 454.979 175.138 454.839C174.867 454.699 174.643 454.507 174.466 454.265C174.298 454.022 174.214 453.7 174.214 453.299C174.214 452.897 174.312 452.552 174.508 452.263C174.704 451.964 174.975 451.735 175.32 451.577C175.675 451.418 176.099 451.339 176.594 451.339C177.117 451.339 177.579 451.432 177.98 451.619C178.391 451.796 178.727 452.067 178.988 452.431L178.176 453.243C177.989 453 177.756 452.813 177.476 452.683C177.205 452.552 176.897 452.487 176.552 452.487C176.188 452.487 175.908 452.552 175.712 452.683C175.525 452.804 175.432 452.977 175.432 453.201C175.432 453.425 175.516 453.597 175.684 453.719C175.852 453.84 176.071 453.943 176.342 454.027C176.622 454.111 176.911 454.199 177.21 454.293C177.509 454.377 177.793 454.493 178.064 454.643C178.335 454.792 178.554 454.993 178.722 455.245C178.899 455.497 178.988 455.828 178.988 456.239C178.988 456.864 178.764 457.359 178.316 457.723C177.877 458.087 177.285 458.269 176.538 458.269ZM183.478 458.269C182.816 458.269 182.218 458.119 181.686 457.821C181.154 457.513 180.734 457.097 180.426 456.575C180.118 456.052 179.964 455.459 179.964 454.797C179.964 454.143 180.114 453.555 180.412 453.033C180.72 452.51 181.131 452.099 181.644 451.801C182.167 451.493 182.75 451.339 183.394 451.339C184.01 451.339 184.552 451.479 185.018 451.759C185.494 452.039 185.863 452.426 186.124 452.921C186.395 453.415 186.53 453.975 186.53 454.601C186.53 454.694 186.526 454.797 186.516 454.909C186.507 455.011 186.488 455.133 186.46 455.273H180.846V454.223H185.788L185.326 454.629C185.326 454.181 185.247 453.803 185.088 453.495C184.93 453.177 184.706 452.935 184.416 452.767C184.127 452.589 183.777 452.501 183.366 452.501C182.937 452.501 182.559 452.594 182.232 452.781C181.906 452.967 181.654 453.229 181.476 453.565C181.299 453.901 181.21 454.297 181.21 454.755C181.21 455.221 181.304 455.632 181.49 455.987C181.677 456.332 181.943 456.603 182.288 456.799C182.634 456.985 183.03 457.079 183.478 457.079C183.852 457.079 184.192 457.013 184.5 456.883C184.818 456.752 185.088 456.556 185.312 456.295L186.124 457.121C185.807 457.494 185.415 457.779 184.948 457.975C184.491 458.171 184.001 458.269 183.478 458.269ZM188.721 458.129V448.693H189.981V458.129H188.721ZM187.083 452.627V451.479H191.619V452.627H187.083ZM195.99 458.129V448.413H196.914L201.03 455.175H200.4L204.516 448.413H205.44V458.129H204.124V450.723L204.432 450.807L201.184 456.141H200.26L197.012 450.807L197.306 450.723V458.129H195.99ZM210.338 458.269C209.731 458.269 209.18 458.119 208.686 457.821C208.191 457.513 207.799 457.097 207.51 456.575C207.23 456.052 207.09 455.464 207.09 454.811C207.09 454.157 207.23 453.569 207.51 453.047C207.799 452.524 208.186 452.109 208.672 451.801C209.166 451.493 209.722 451.339 210.338 451.339C210.842 451.339 211.29 451.446 211.682 451.661C212.083 451.866 212.405 452.155 212.648 452.529C212.89 452.893 213.026 453.317 213.054 453.803V455.805C213.026 456.281 212.89 456.705 212.648 457.079C212.414 457.452 212.097 457.746 211.696 457.961C211.304 458.166 210.851 458.269 210.338 458.269ZM210.548 457.079C211.173 457.079 211.677 456.869 212.06 456.449C212.442 456.019 212.634 455.473 212.634 454.811C212.634 454.353 212.545 453.957 212.368 453.621C212.2 453.275 211.957 453.009 211.64 452.823C211.322 452.627 210.954 452.529 210.534 452.529C210.114 452.529 209.74 452.627 209.414 452.823C209.096 453.019 208.844 453.289 208.658 453.635C208.48 453.971 208.392 454.358 208.392 454.797C208.392 455.245 208.48 455.641 208.658 455.987C208.844 456.323 209.101 456.589 209.428 456.785C209.754 456.981 210.128 457.079 210.548 457.079ZM212.55 458.129V456.337L212.788 454.713L212.55 453.103V451.479H213.824V458.129H212.55ZM220.362 458.129V454.251C220.362 453.747 220.204 453.331 219.886 453.005C219.569 452.678 219.158 452.515 218.654 452.515C218.318 452.515 218.02 452.589 217.758 452.739C217.497 452.888 217.292 453.093 217.142 453.355C216.993 453.616 216.918 453.915 216.918 454.251L216.4 453.957C216.4 453.453 216.512 453.005 216.736 452.613C216.96 452.221 217.273 451.913 217.674 451.689C218.076 451.455 218.528 451.339 219.032 451.339C219.536 451.339 219.98 451.465 220.362 451.717C220.754 451.969 221.062 452.3 221.286 452.711C221.51 453.112 221.622 453.541 221.622 453.999V458.129H220.362ZM215.658 458.129V451.479H216.918V458.129H215.658ZM226.156 458.269C225.55 458.269 224.999 458.119 224.504 457.821C224.01 457.513 223.618 457.097 223.328 456.575C223.048 456.052 222.908 455.464 222.908 454.811C222.908 454.157 223.048 453.569 223.328 453.047C223.618 452.524 224.005 452.109 224.49 451.801C224.985 451.493 225.54 451.339 226.156 451.339C226.66 451.339 227.108 451.446 227.5 451.661C227.902 451.866 228.224 452.155 228.466 452.529C228.709 452.893 228.844 453.317 228.872 453.803V455.805C228.844 456.281 228.709 456.705 228.466 457.079C228.233 457.452 227.916 457.746 227.514 457.961C227.122 458.166 226.67 458.269 226.156 458.269ZM226.366 457.079C226.992 457.079 227.496 456.869 227.878 456.449C228.261 456.019 228.452 455.473 228.452 454.811C228.452 454.353 228.364 453.957 228.186 453.621C228.018 453.275 227.776 453.009 227.458 452.823C227.141 452.627 226.772 452.529 226.352 452.529C225.932 452.529 225.559 452.627 225.232 452.823C224.915 453.019 224.663 453.289 224.476 453.635C224.299 453.971 224.21 454.358 224.21 454.797C224.21 455.245 224.299 455.641 224.476 455.987C224.663 456.323 224.92 456.589 225.246 456.785C225.573 456.981 225.946 457.079 226.366 457.079ZM228.368 458.129V456.337L228.606 454.713L228.368 453.103V451.479H229.642V458.129H228.368ZM234.235 461.055C233.553 461.055 232.947 460.929 232.415 460.677C231.892 460.425 231.472 460.07 231.155 459.613L231.967 458.787C232.237 459.132 232.559 459.393 232.933 459.571C233.306 459.757 233.749 459.851 234.263 459.851C234.944 459.851 235.481 459.669 235.873 459.305C236.274 458.95 236.475 458.469 236.475 457.863V456.211L236.699 454.713L236.475 453.229V451.479H237.735V457.863C237.735 458.497 237.585 459.053 237.287 459.529C236.997 460.005 236.587 460.378 236.055 460.649C235.532 460.919 234.925 461.055 234.235 461.055ZM234.235 458.017C233.628 458.017 233.082 457.872 232.597 457.583C232.121 457.293 231.743 456.897 231.463 456.393C231.183 455.879 231.043 455.305 231.043 454.671C231.043 454.036 231.183 453.471 231.463 452.977C231.743 452.473 232.121 452.076 232.597 451.787C233.082 451.488 233.628 451.339 234.235 451.339C234.757 451.339 235.219 451.441 235.621 451.647C236.022 451.852 236.339 452.141 236.573 452.515C236.815 452.879 236.946 453.308 236.965 453.803V455.567C236.937 456.052 236.801 456.481 236.559 456.855C236.325 457.219 236.008 457.503 235.607 457.709C235.205 457.914 234.748 458.017 234.235 458.017ZM234.487 456.827C234.897 456.827 235.257 456.738 235.565 456.561C235.882 456.383 236.125 456.136 236.293 455.819C236.461 455.492 236.545 455.114 236.545 454.685C236.545 454.255 236.456 453.882 236.279 453.565C236.111 453.238 235.873 452.986 235.565 452.809C235.257 452.622 234.893 452.529 234.473 452.529C234.053 452.529 233.684 452.622 233.367 452.809C233.049 452.986 232.797 453.238 232.611 453.565C232.433 453.882 232.345 454.251 232.345 454.671C232.345 455.091 232.433 455.464 232.611 455.791C232.797 456.117 233.049 456.374 233.367 456.561C233.693 456.738 234.067 456.827 234.487 456.827ZM242.664 458.269C242.001 458.269 241.404 458.119 240.872 457.821C240.34 457.513 239.92 457.097 239.612 456.575C239.304 456.052 239.15 455.459 239.15 454.797C239.15 454.143 239.299 453.555 239.598 453.033C239.906 452.51 240.317 452.099 240.83 451.801C241.353 451.493 241.936 451.339 242.58 451.339C243.196 451.339 243.737 451.479 244.204 451.759C244.68 452.039 245.049 452.426 245.31 452.921C245.581 453.415 245.716 453.975 245.716 454.601C245.716 454.694 245.711 454.797 245.702 454.909C245.693 455.011 245.674 455.133 245.646 455.273H240.032V454.223H244.974L244.512 454.629C244.512 454.181 244.433 453.803 244.274 453.495C244.115 453.177 243.891 452.935 243.602 452.767C243.313 452.589 242.963 452.501 242.552 452.501C242.123 452.501 241.745 452.594 241.418 452.781C241.091 452.967 240.839 453.229 240.662 453.565C240.485 453.901 240.396 454.297 240.396 454.755C240.396 455.221 240.489 455.632 240.676 455.987C240.863 456.332 241.129 456.603 241.474 456.799C241.819 456.985 242.216 457.079 242.664 457.079C243.037 457.079 243.378 457.013 243.686 456.883C244.003 456.752 244.274 456.556 244.498 456.295L245.31 457.121C244.993 457.494 244.601 457.779 244.134 457.975C243.677 458.171 243.187 458.269 242.664 458.269ZM247.09 458.129V451.479H248.35V458.129H247.09ZM251.584 458.129V454.111C251.584 453.616 251.43 453.229 251.122 452.949C250.823 452.659 250.445 452.515 249.988 452.515C249.68 452.515 249.405 452.58 249.162 452.711C248.919 452.841 248.723 453.023 248.574 453.257C248.425 453.49 248.35 453.77 248.35 454.097L247.832 453.845C247.832 453.341 247.939 452.902 248.154 452.529C248.378 452.155 248.681 451.866 249.064 451.661C249.447 451.446 249.876 451.339 250.352 451.339C250.819 451.339 251.239 451.441 251.612 451.647C251.995 451.852 252.293 452.141 252.508 452.515C252.732 452.888 252.844 453.331 252.844 453.845V458.129H251.584ZM256.078 458.129V454.111C256.078 453.616 255.924 453.229 255.616 452.949C255.317 452.659 254.944 452.515 254.496 452.515C254.188 452.515 253.908 452.58 253.656 452.711C253.413 452.841 253.217 453.023 253.068 453.257C252.919 453.49 252.844 453.77 252.844 454.097L252.13 453.845C252.158 453.331 252.293 452.893 252.536 452.529C252.788 452.155 253.11 451.866 253.502 451.661C253.894 451.446 254.323 451.339 254.79 451.339C255.275 451.339 255.709 451.441 256.092 451.647C256.475 451.852 256.778 452.141 257.002 452.515C257.235 452.888 257.352 453.336 257.352 453.859V458.129H256.078ZM262.146 458.269C261.484 458.269 260.886 458.119 260.354 457.821C259.822 457.513 259.402 457.097 259.094 456.575C258.786 456.052 258.632 455.459 258.632 454.797C258.632 454.143 258.782 453.555 259.08 453.033C259.388 452.51 259.799 452.099 260.312 451.801C260.835 451.493 261.418 451.339 262.062 451.339C262.678 451.339 263.22 451.479 263.686 451.759C264.162 452.039 264.531 452.426 264.792 452.921C265.063 453.415 265.198 453.975 265.198 454.601C265.198 454.694 265.194 454.797 265.184 454.909C265.175 455.011 265.156 455.133 265.128 455.273H259.514V454.223H264.456L263.994 454.629C263.994 454.181 263.915 453.803 263.756 453.495C263.598 453.177 263.374 452.935 263.084 452.767C262.795 452.589 262.445 452.501 262.034 452.501C261.605 452.501 261.227 452.594 260.9 452.781C260.574 452.967 260.322 453.229 260.144 453.565C259.967 453.901 259.878 454.297 259.878 454.755C259.878 455.221 259.972 455.632 260.158 455.987C260.345 456.332 260.611 456.603 260.956 456.799C261.302 456.985 261.698 457.079 262.146 457.079C262.52 457.079 262.86 457.013 263.168 456.883C263.486 456.752 263.756 456.556 263.98 456.295L264.792 457.121C264.475 457.494 264.083 457.779 263.616 457.975C263.159 458.171 262.669 458.269 262.146 458.269ZM271.276 458.129V454.251C271.276 453.747 271.118 453.331 270.8 453.005C270.483 452.678 270.072 452.515 269.568 452.515C269.232 452.515 268.934 452.589 268.672 452.739C268.411 452.888 268.206 453.093 268.056 453.355C267.907 453.616 267.832 453.915 267.832 454.251L267.314 453.957C267.314 453.453 267.426 453.005 267.65 452.613C267.874 452.221 268.187 451.913 268.588 451.689C268.99 451.455 269.442 451.339 269.946 451.339C270.45 451.339 270.894 451.465 271.276 451.717C271.668 451.969 271.976 452.3 272.2 452.711C272.424 453.112 272.536 453.541 272.536 453.999V458.129H271.276ZM266.572 458.129V451.479H267.832V458.129H266.572ZM275.182 458.129V448.693H276.442V458.129H275.182ZM273.544 452.627V451.479H278.08V452.627H273.544Z" fill="#989898"/>
<g opacity="0.08">
<path d="M242.151 159.029C242.151 209.606 283.151 250.606 333.728 250.606C384.305 250.606 425.305 209.606 425.305 159.029L242.151 159.029ZM242.151 -65.7516L242.151 159.029L425.305 159.029L425.305 -65.7516L242.151 -65.7516Z" fill="white"/>
<mask id="path-5-inside-1_18_9627" fill="white">
<path d="M648.228 397.627C648.228 488.75 621.207 577.827 570.582 653.594C519.956 729.36 448 788.413 363.813 823.284C279.626 858.156 186.989 867.28 97.6165 849.502C8.24401 831.725 -73.8499 787.845 -138.284 723.411C-202.718 658.977 -246.598 576.883 -264.375 487.511C-282.153 398.138 -273.029 305.501 -238.157 221.314C-203.286 137.127 -144.233 65.1709 -68.4667 14.5454C7.29964 -36.08 96.3767 -63.1012 187.5 -63.1012L187.5 128.7C134.311 128.7 82.3173 144.473 38.0926 174.023C-6.13216 203.573 -40.6011 245.573 -60.9556 294.713C-81.31 343.853 -86.6356 397.925 -76.259 450.092C-65.8824 502.258 -40.2697 550.177 -2.65962 587.787C34.9504 625.397 82.8685 651.009 135.035 661.386C187.202 671.763 241.274 666.437 290.414 646.083C339.554 625.728 381.554 591.259 411.104 547.034C440.654 502.81 456.427 450.816 456.427 397.627L648.228 397.627Z"/>
</mask>
<path d="M648.228 397.627C648.228 488.75 621.207 577.827 570.582 653.594C519.956 729.36 448 788.413 363.813 823.284C279.626 858.156 186.989 867.28 97.6165 849.502C8.24401 831.725 -73.8499 787.845 -138.284 723.411C-202.718 658.977 -246.598 576.883 -264.375 487.511C-282.153 398.138 -273.029 305.501 -238.157 221.314C-203.286 137.127 -144.233 65.1709 -68.4667 14.5454C7.29964 -36.08 96.3767 -63.1012 187.5 -63.1012L187.5 128.7C134.311 128.7 82.3173 144.473 38.0926 174.023C-6.13216 203.573 -40.6011 245.573 -60.9556 294.713C-81.31 343.853 -86.6356 397.925 -76.259 450.092C-65.8824 502.258 -40.2697 550.177 -2.65962 587.787C34.9504 625.397 82.8685 651.009 135.035 661.386C187.202 671.763 241.274 666.437 290.414 646.083C339.554 625.728 381.554 591.259 411.104 547.034C440.654 502.81 456.427 450.816 456.427 397.627L648.228 397.627Z" fill="white" stroke="white" stroke-width="32.9092" mask="url(#path-5-inside-1_18_9627)"/>
</g>
</g>
<defs>
<linearGradient id="paint0_linear_18_9627" x1="304.5" y1="51.5912" x2="416.773" y2="606.666" gradientUnits="userSpaceOnUse">
<stop stop-color="#211F2D"/>
<stop offset="1" stop-color="#181826" stop-opacity="0.06"/>
</linearGradient>
<clipPath id="clip0_18_9627">
<rect width="375" height="812" fill="white"/>
</clipPath>
</defs>
</svg>
