<svg width="48" height="48" viewBox="0 0 48 48" fill="none" xmlns="http://www.w3.org/2000/svg">
<rect width="48" height="48" rx="24" fill="#2D52EC"/>
<path d="M26.1494 20.0802C26.4439 20.0309 26.6667 19.7782 26.6667 19.4796V16.1152C26.6667 15.5807 27.313 15.3129 27.6909 15.6909L35.5757 23.5757C35.8101 23.81 35.8101 24.1899 35.5757 24.4243L27.6909 32.3091C27.313 32.687 26.6667 32.4193 26.6667 31.8848V28.4667C26.6667 28.1353 26.3978 27.866 26.0665 27.8725C20.8182 27.9764 16.8425 29.4594 13.7958 32.5275C13.3403 32.9863 12.5007 32.577 12.6982 31.9614C14.48 26.4088 18.4266 21.3742 26.1494 20.0802Z" fill="white"/>
</svg>
