<svg width="48" height="48" viewBox="0 0 48 48" fill="none" xmlns="http://www.w3.org/2000/svg">
<rect width="48" height="48" rx="24" fill="#2D52EC"/>
<path d="M27.6158 11.052L27.4998 10.948C27.2434 10.7455 26.9216 10.6443 26.5954 10.6635C26.2692 10.6826 25.9615 10.8209 25.7305 11.052L25.6265 11.168C25.4241 11.4242 25.3229 11.7459 25.3421 12.0718C25.3613 12.3977 25.4995 12.7053 25.7305 12.936L27.4625 14.6653H19.9985L19.6785 14.6707C17.2612 14.7529 14.9704 15.7708 13.2891 17.5095C11.6078 19.2483 10.6675 21.572 10.6665 23.9907C10.6665 25.9173 11.2505 27.708 12.2518 29.1893C12.4575 29.4768 12.7689 29.6709 13.1176 29.7288C13.4663 29.7866 13.8237 29.7036 14.1112 29.498C14.3987 29.2924 14.5927 28.981 14.6506 28.6323C14.7085 28.2836 14.6255 27.9262 14.4198 27.6387L14.2398 27.348C13.6497 26.3353 13.3371 25.1848 13.3337 24.0127C13.3303 22.8406 13.6362 21.6883 14.2204 20.6722C14.8047 19.6561 15.6467 18.812 16.6614 18.2254C17.6762 17.6387 18.8277 17.3301 19.9998 17.3307H27.4598L25.7305 19.06L25.6265 19.176C25.41 19.4422 25.3046 19.7818 25.3323 20.1238C25.36 20.4659 25.5186 20.784 25.7751 21.012C26.0316 21.24 26.3662 21.3601 26.7091 21.3475C27.052 21.3348 27.3769 21.1903 27.6158 20.944L31.6238 16.94L31.7265 16.824C31.9289 16.5678 32.0301 16.2462 32.0109 15.9202C31.9917 15.5943 31.8535 15.2867 31.6225 15.056L27.6158 11.052ZM35.7158 18.7467C35.5451 18.5275 35.3101 18.3673 35.0437 18.2883C34.7774 18.2094 34.493 18.2157 34.2304 18.3063C33.9679 18.397 33.7402 18.5675 33.5793 18.794C33.4184 19.0204 33.3323 19.2915 33.3332 19.5693C33.3332 19.848 33.4185 20.1053 33.5625 20.3173C34.2255 21.3216 34.6041 22.4867 34.6581 23.6888C34.7122 24.8909 34.4396 26.0853 33.8694 27.145C33.2992 28.2047 32.4527 29.0901 31.4197 29.7074C30.3867 30.3246 29.2059 30.6506 28.0025 30.6507H20.5518L22.2772 28.9307L22.3878 28.8027C22.5694 28.5675 22.6673 28.2784 22.6658 27.9813C22.6644 27.6842 22.5637 27.3961 22.3798 27.1627L22.2772 27.0453L22.1505 26.9333C21.915 26.7513 21.6254 26.6532 21.3278 26.6547C21.0302 26.6561 20.7415 26.757 20.5078 26.9413L20.3905 27.0453L16.3838 31.0493L16.2732 31.176C16.0913 31.4113 15.9932 31.7006 15.9947 31.998C15.9961 32.2955 16.097 32.5838 16.2812 32.8173L16.3838 32.9333L20.3905 36.9373L20.5172 37.0493C20.7746 37.2482 21.0958 37.346 21.4204 37.3245C21.7449 37.303 22.0504 37.1636 22.2794 36.9326C22.5083 36.7015 22.6449 36.3947 22.6634 36.07C22.6819 35.7452 22.581 35.4249 22.3798 35.1693L22.2772 35.0533L20.5385 33.316H27.9998L28.3198 33.312C29.9875 33.2547 31.6092 32.7512 33.0161 31.8539C34.423 30.9567 35.5634 29.6985 36.3186 28.2105C37.0738 26.7226 37.4162 25.0593 37.3099 23.3941C37.2036 21.7288 36.6527 20.1226 35.7145 18.7427V18.7467H35.7158Z" fill="white"/>
</svg>
